<?xml version="1.0" standalone="no"?>
<!DOCTYPE svg PUBLIC "-//W3C//DTD SVG 20010904//EN"
 "http://www.w3.org/TR/2001/REC-SVG-20010904/DTD/svg10.dtd">
<svg version="1.0" xmlns="http://www.w3.org/2000/svg"
 width="1102.000000pt" height="1102.000000pt" viewBox="0 0 1102.000000 1102.000000"
 preserveAspectRatio="xMidYMid meet">
<metadata>
Created by potrace 1.14, written by Peter Selinger 2001-2017
</metadata>
<g transform="translate(0.000000,1102.000000) scale(0.100000,-0.100000)"
fill="#000000" stroke="none">
<path d="M2945 8529 c-1474 -737 -2684 -1345 -2689 -1350 -6 -5 65 -158 183
-394 106 -212 194 -385 197 -385 2 0 445 221 984 490 539 270 981 490 983 490
1 0 3 -670 3 -1490 0 -819 -2 -1490 -3 -1490 -2 0 -34 15 -71 34 -58 29 -107
50 -197 86 -258 102 -622 132 -915 75 -457 -88 -849 -344 -1110 -726 -57 -84
-158 -267 -173 -314 -3 -11 -13 -38 -22 -60 -136 -346 -144 -772 -20 -1151 60
-182 189 -418 307 -558 103 -123 248 -253 387 -346 211 -142 530 -255 773
-275 101 -9 289 -9 353 -1 28 3 69 8 93 11 76 9 275 63 367 100 586 235 987
743 1087 1375 9 56 12 716 14 2610 1 1394 3 2541 3 2547 1 7 487 256 1081 553
l1080 540 1080 -540 1080 -540 1 -38 c2 -206 3 -3382 0 -3382 -2 0 -49 22
-105 49 -186 91 -392 150 -580 168 -132 12 -395 5 -456 -12 -8 -2 -26 -6 -40
-9 -221 -39 -496 -156 -690 -294 -121 -86 -316 -280 -403 -402 -129 -182 -263
-491 -291 -675 -4 -22 -11 -67 -17 -100 -16 -85 -17 -321 -2 -440 18 -153 57
-301 125 -475 18 -48 108 -215 148 -275 161 -241 408 -463 655 -588 77 -38
190 -87 214 -92 9 -2 35 -10 58 -19 67 -24 261 -64 348 -72 205 -18 405 -4
580 41 33 9 69 17 80 19 42 9 165 56 256 98 471 221 836 673 948 1178 11 52
24 109 28 125 4 17 9 1093 10 2393 2 1299 5 2362 8 2362 3 0 446 -221 986
-491 540 -269 983 -489 984 -487 14 14 375 750 375 765 0 14 -36 37 -152 94
-84 42 -252 125 -373 186 -1274 641 -4848 2423 -4858 2422 -6 0 -1218 -603
-2692 -1340z m-1013 -4793 c77 -19 213 -74 256 -105 17 -11 33 -21 36 -21 6 0
35 -24 82 -67 13 -12 30 -26 37 -30 18 -11 98 -110 130 -160 36 -57 83 -160
97 -214 6 -24 14 -51 17 -59 18 -48 23 -262 7 -340 -16 -75 -52 -191 -65 -204
-5 -6 -9 -16 -9 -24 0 -7 -12 -29 -26 -48 -15 -19 -22 -34 -18 -34 5 0 4 -4
-2 -8 -6 -4 -29 -32 -51 -62 -36 -49 -83 -97 -154 -155 -62 -52 -201 -124
-269 -140 -3 -1 -23 -6 -45 -13 -111 -31 -313 -34 -407 -6 -9 3 -25 6 -35 8
-59 12 -178 68 -258 121 -65 44 -185 160 -212 206 -10 16 -21 29 -25 29 -4 0
-8 5 -8 10 0 6 -11 27 -23 48 -45 71 -88 197 -103 302 -10 66 -12 180 -4 218
5 20 11 56 14 80 3 23 10 51 16 62 6 11 8 20 6 20 -10 0 78 193 97 212 7 7 24
29 37 48 13 19 30 39 37 43 7 5 11 12 8 18 -4 5 -1 9 4 9 6 0 28 17 49 38 48
47 84 77 114 93 12 6 25 15 28 19 7 10 159 80 174 80 7 0 16 3 20 7 7 7 27 12
63 16 13 1 23 6 23 10 0 5 3 6 8 4 4 -3 25 -2 47 2 64 11 234 4 307 -13z
m5138 10 c101 -16 188 -44 253 -81 25 -13 47 -21 51 -18 3 4 6 2 6 -3 0 -5 14
-18 32 -28 40 -24 70 -49 129 -108 26 -25 51 -43 55 -40 4 4 5 2 1 -4 -3 -5 9
-26 26 -45 34 -37 129 -214 142 -264 5 -16 9 -34 11 -40 25 -92 35 -263 21
-345 -4 -19 -9 -48 -12 -65 -12 -64 -75 -228 -95 -245 -3 -3 -11 -17 -17 -32
-7 -16 -17 -28 -23 -28 -5 0 -10 -5 -10 -11 0 -11 -18 -34 -72 -90 -16 -16
-28 -33 -28 -39 0 -6 -4 -8 -10 -5 -5 3 -10 1 -10 -5 0 -6 -11 -15 -25 -22
-13 -6 -22 -15 -19 -19 3 -5 1 -9 -5 -9 -5 0 -36 -17 -68 -37 -68 -45 -168
-92 -205 -99 -5 -1 -10 -2 -13 -3 -3 0 -8 -2 -12 -2 -5 -1 -17 -5 -29 -9 -80
-31 -330 -31 -409 0 -16 6 -31 11 -33 11 -16 -6 -184 65 -190 81 -2 4 -10 8
-17 8 -7 0 -27 12 -44 26 -17 14 -31 23 -31 19 0 -4 -9 4 -21 19 -11 14 -27
26 -35 26 -8 0 -14 4 -14 9 0 13 -73 86 -83 83 -5 -1 -6 1 -3 6 3 5 -3 18 -14
30 -19 20 -37 49 -76 122 -11 19 -23 38 -27 41 -5 3 -8 8 -7 10 1 2 -1 11 -4
19 -47 141 -62 224 -61 340 1 89 6 125 29 228 8 33 70 177 83 190 7 7 13 17
13 22 0 5 12 22 26 39 14 17 22 31 18 31 -4 0 -1 6 8 13 8 6 41 40 72 74 31
35 56 61 56 58 0 -3 21 11 48 31 26 20 57 41 70 47 12 6 22 15 22 20 0 6 3 7
7 4 3 -4 15 1 26 10 10 10 21 17 23 15 2 -1 20 5 40 13 36 15 101 34 139 42
86 16 121 19 200 16 50 -1 101 -4 115 -7z"/>
<path d="M4530 6875 c0 -272 3 -495 8 -496 36 -5 966 -3 974 2 8 5 13 614 9
952 l-1 37 -495 0 -495 0 0 -495z"/>
<path d="M5799 7343 c0 -43 -1 -925 0 -948 1 -20 8 -20 493 -19 l493 0 3 497
2 497 -495 0 -495 0 -1 -27z"/>
<path d="M4530 5608 l0 -498 495 0 495 0 1 28 c3 152 -1 955 -5 960 -3 3 -226
6 -496 6 l-490 1 0 -497z"/>
<path d="M5808 6099 c-7 -4 -10 -177 -10 -495 l-1 -489 497 -3 496 -2 -2 497
-3 496 -483 1 c-266 1 -488 -2 -494 -5z"/>
</g>
</svg>
